<?xml version="1.0" encoding="UTF-8" standalone="no"?>
<!-- Created with Inkscape (http://www.inkscape.org/) -->

<svg
   xmlns:dc="http://purl.org/dc/elements/1.1/"
   xmlns:cc="http://creativecommons.org/ns#"
   xmlns:rdf="http://www.w3.org/1999/02/22-rdf-syntax-ns#"
   xmlns:svg="http://www.w3.org/2000/svg"
   xmlns="http://www.w3.org/2000/svg"
   xmlns:sodipodi="http://sodipodi.sourceforge.net/DTD/sodipodi-0.dtd"
   xmlns:inkscape="http://www.inkscape.org/namespaces/inkscape"
   id="svg2"
   version="1.1"
   inkscape:version="0.91 r13725"
   width="2048"
   height="1536"
   viewBox="0 0 2048 1536"
   sodipodi:docname="bumper1.svg">
  <metadata
     id="metadata8">
    <rdf:RDF>
      <cc:Work
         rdf:about="">
        <dc:format>image/svg+xml</dc:format>
        <dc:type
           rdf:resource="http://purl.org/dc/dcmitype/StillImage" />
        <dc:title />
      </cc:Work>
    </rdf:RDF>
  </metadata>
  <defs
     id="defs6" />
  <sodipodi:namedview
     pagecolor="#ffffff"
     bordercolor="#666666"
     borderopacity="1"
     objecttolerance="10"
     gridtolerance="10"
     guidetolerance="10"
     inkscape:pageopacity="0"
     inkscape:pageshadow="2"
     inkscape:window-width="1920"
     inkscape:window-height="1016"
     id="namedview4"
     showgrid="false"
     inkscape:zoom="0.30387477"
     inkscape:cx="1136.4943"
     inkscape:cy="565.0945"
     inkscape:window-x="0"
     inkscape:window-y="27"
     inkscape:window-maximized="1"
     inkscape:current-layer="svg2" />
  <g
     id="g4165">
    <path
       sodipodi:nodetypes="ccccscccccccscscscsccccscsscccccscc"
       inkscape:connector-curvature="0"
       id="path4743"
       d="m 1103.8623,851.39653 c -103.2445,28.05429 -193.4051,70.15337 -258.121,211.56007 -10.0034,31.5468 -20.9127,61.4884 -44.8828,51.7755 -102.3421,19.8262 -156.7109,34.9287 -154.7763,79.8088 3.3872,10.6039 -8.1977,32.6143 1.3911,30.7097 7.7874,-1.5468 16.1264,16.3324 15.4186,19.6337 8.9947,1.4418 39.6709,10.7357 44.9283,6.7922 34.2305,13.7961 75.4798,9.2275 110.4751,2.233 42.9966,-18.2275 91.5901,-13.6748 119.0746,-81.087 17.0379,7.141 30.803,3.661 42.3753,3.5138 -13.1195,6.0771 57.7691,71.2898 105.6804,65.7838 -0.9337,21.9967 -12.3914,43.9935 2.1504,65.9902 10.9781,1.0543 13.3735,14.3493 19.7466,26.4686 5.0806,9.6617 14.8285,19.0413 17.9191,17.4958 12.0152,-8.0813 24.7223,3.8191 34.8022,-0.5995 5.8969,-2.585 8.2833,10.4788 8.7197,18.9078 4.5103,2.6188 10.4446,-4.1469 16.0248,-3.2447 25.5312,4.1278 58.9405,-2.1265 67.8394,-23.8117 79.0718,-3.3485 68.517,-41.2069 81.6099,-62.4105 6.497,-10.5216 4.0935,14.5849 14.9669,8.42 75.0466,-52.1488 -25.0432,-222.3101 24.5664,-60.7396 56.8189,21.5872 73.9965,2.0753 133.6465,1.7822 40.3966,3.0572 90.5196,7.2301 103.8844,-6.0341 9.4751,21.7566 13.1318,53.5195 33.6235,32.3669 5.4236,-5.5986 16.4614,0.1723 26.2044,-2.7665 9.3923,17.719 30.5821,36.6474 53.3529,34.315 9.3194,-0.9546 1.921,16.6447 7.1207,16.5659 10.9727,-0.1664 5.5631,-20.6635 15.4394,-24.9463 0,0 16.4836,43.7427 75.9196,10.9684 32.9989,13.6488 49.7488,-1.4534 57.7758,-31.9899 4e-4,0 39.1343,-13.8366 18.8523,-60.2481 -30.6812,-61.1343 -34.8451,-112.7809 -68.9703,-140.4699 -4.937,-25.3334 -2.0181,-96.10158 -23.166,-129.532 -3.9706,-6.27673 -31.5935,-115.47667 -41.6946,-110.97562 -197.9693,-39.67244 -321.8237,-245.89122 -661.8973,33.76405 z"
       style="fill:#ffffff;fill-opacity:1" />
    <path
       sodipodi:nodetypes="ccccccccccccccssssssssssssccscccsc"
       inkscape:connector-curvature="0"
       id="path4761"
       d="m 1332.4811,177.2555 c -107.437,2.21041 -162.8854,91.78451 -177.2935,151.1354 -4.0872,15.71676 -35.066,51.89095 -29.6835,78.24537 -4.8789,0.13041 5.0005,80.5715 5.0005,80.5715 -17.4543,9.16211 -27.506,20.93928 -36.981,31.2212 -17.207,19.166 -24.0492,54.3868 -24.0716,123.92881 -0.014,42.51492 0.9572,55.77133 8.0468,109.94831 6.1625,38.71655 8.8951,75.91184 7.6388,112.15784 -0.059,6.77787 -0.7589,19.37052 -1.5558,27.98478 6.7823,61.59381 4.3878,174.22069 80.2993,150.53919 29.6903,-9.5788 59.3577,-22.4759 71.3058,-42.1737 21.2852,-49.9966 18.5477,-144.16365 3.925,-192.90199 86.7049,-71.93674 142.3564,-50.78534 235.7187,-35.98017 -5.7007,43.60593 -14.5902,94.81351 -16.285,141.45575 0,23.61334 5.8946,51.16588 14.7469,68.92514 4.8916,9.81317 7.9664,13.99889 16.8294,22.92157 9.4455,9.5092 12.5402,11.7331 24.0203,17.2505 27.5917,13.2614 60.1806,17.2168 83.1938,10.0984 9.8222,-3.0381 53.2456,-24.5981 63.263,-31.4106 21.0029,-14.28352 60.531,-51.98886 68.1293,-64.98765 9.757,-16.69176 19.0634,-42.01127 24.0263,-65.37059 3.3455,-15.74686 4.0247,-49.22029 1.2895,-63.53431 -3.5004,-18.31802 -10.8807,-44.14148 -22.9358,-80.24967 -14.5856,-43.68744 -16.6318,-51.3722 -20.1794,-75.82633 -3.0894,-21.29661 -3.9223,-25.31111 -8.7784,-42.3365 -3.7846,-13.26892 -10.8441,-43.02007 -18.3121,-77.16926 -5.2586,-24.04659 -13.3117,-48.99147 -17.1308,-53.06257 -3.9807,-7.83228 -8.344,-15.71866 -15.0842,-21.63035 -4.522,-3.85698 -12.782,-8.95239 -28.3938,-17.51704 -11.1354,-6.1087 -22.0841,-16.97738 -22.0841,-21.92257 -1.0438,-22.78707 -31.4759,-38.64914 -54.3621,-56.28949 2.7614,-4.14792 -44.0768,-139.07131 -92.5876,-142.49025 -19.3306,-13.00829 -42.2813,-23.27871 -73.9126,-33.07739 -17.6198,-5.45814 -32.9328,-8.30302 -47.8021,-8.45333 z"
       style="fill:#a3652a;fill-opacity:1" />
    <path
       sodipodi:nodetypes="cscsssssscssscsscsscsscsccsssssscsssssscccc"
       inkscape:connector-curvature="0"
       id="path4667"
       d="m 1499.9795,733.2327 c 3.77,-12.32623 2.7739,-21.88467 -5.0533,-48.49772 -5.2722,-17.92558 -7.2636,-22.88157 -11.4242,-28.43232 -2.7715,-3.69747 -6.5171,-10.13461 -8.3235,-14.30472 -3.5228,-8.13151 -16.1199,-40.61143 -16.1199,-41.56263 0,-0.31523 -7.4077,-15.54444 -16.4613,-33.84266 -13.6876,-27.66404 -17.5814,-34.44052 -23.1095,-40.21959 -3.6568,-3.82258 -11.0969,-11.58745 -16.534,-17.25511 -5.4369,-5.66767 -11.1084,-12.68556 -12.6031,-15.59525 -4.6482,-9.0486 -21.5154,-30.26561 -24.5536,-30.88587 -1.5432,-0.31483 -5.6686,-0.94199 -9.1678,-1.39364 -14.4774,-1.86848 -18.4139,-5.91348 -25.819,-26.53173 -6.7913,-18.90928 -7.3957,-19.91578 -21.2073,-35.31001 -8.6776,-9.67186 -12.5006,-14.96908 -13.5373,-18.75716 -2.2658,-8.27932 -0.77,-40.87486 2.475,-53.92965 1.4685,-5.90759 3.7568,-17.51884 5.0851,-25.80277 l 2.4151,-15.06179 -10.1713,-20.95248 c -5.5942,-11.52405 -14.4534,-29.76686 -19.6871,-40.53953 -5.2338,-10.77277 -10.0165,-20.86607 -10.6281,-22.43002 -0.6115,-1.56376 -1.6113,-2.84319 -2.2219,-2.84319 -4.1136,0 -38.8499,24.43623 -49.2696,34.66034 l -6.5315,6.40864 -1.5448,29.50803 c -1.464,27.96618 -1.425,29.59824 0.7491,31.2355 4.7507,3.94229 6.8493,5.81848 9.6369,11.15311 -0.3359,0.33363 1.6966,4.76467 4.5167,9.84668 9.8793,17.80426 13.98,32.11729 17.3364,60.51221 1.1419,9.66115 -1.2357,27.05908 -5.2077,38.10678 -1.8167,5.0528 -4.6309,12.99599 -6.2539,17.65165 -1.623,4.65556 -4.1192,10.62646 -5.5473,13.26842 -1.428,2.64196 -3.2434,8.99599 -4.0341,14.1201 -1.1051,7.16141 -1.9664,9.45394 -3.7235,9.91028 -1.2573,0.32654 -2.6514,1.82059 -3.0981,3.32003 -5.042,16.92639 -12.9298,51.91536 -15.998,70.96405 -1.4552,9.0353 -3.1721,18.41973 -3.8155,20.85457 -0.6432,2.43484 -1.4244,10.11161 -1.7358,17.05939 -2.7461,61.27079 -4.6968,80.94804 -10.4371,105.27826 -4.391,18.61135 -5.398,38.06258 -2.4385,47.10077 7.8842,24.0773 47.7725,65.61052 62.9948,65.59262 6.0451,0.051 19.7872,-2.40224 33.2501,-17.76397 36.6309,13.88958 80.1823,12.53955 139.2697,-23.02308 53.4515,13.72376 83.0852,3.31063 88.5287,-31.61654 z"
       style="fill:#ffffff;fill-opacity:1" />
    <path
       sodipodi:nodetypes="cccccc"
       inkscape:connector-curvature="0"
       id="path4661"
       d="m 1210.6034,430.83247 c -10.0523,-34.35391 -25.5171,-45.52282 -53.8561,-34.16549 -13.5707,10.25502 -15.661,23.86197 -12.2506,33.61904 6.6258,13.94508 11.6584,14.71756 19.1998,18.60515 8.2543,4.25522 27.381,2.81068 36.3236,-2.42865 6.3056,-4.20561 7.7234,-8.38903 10.5833,-15.63005 z"
       style="fill:#ffffff;fill-opacity:1" />
    <path
       sodipodi:nodetypes="ccccscsscc"
       inkscape:connector-curvature="0"
       id="path4659"
       d="m 1180.071,433.00849 c 2.6078,-1.16412 5.9663,-3.30443 7.3074,-4.59996 3.9519,-3.81828 7.3901,-12.49654 7.242,-18.10099 l -0.5846,-5.27893 -1.9547,5.58556 c -2.5786,7.36853 -8.1299,15.99758 -14.4828,18.03119 -11.3236,3.62456 -21.8138,-5.39034 -23.6851,-20.46024 -0.8586,-6.91418 -1.656,-7.0631 -2.5788,-2.92769 -2.7555,12.34843 8.3621,29.47233 20.0349,29.68625 1.6166,0.03 6.0938,-0.77108 8.7017,-1.93519 z"
       style="fill:#a3652a;fill-opacity:1" />
    <path
       sodipodi:nodetypes="sccccss"
       inkscape:connector-curvature="0"
       id="path4679"
       d="m 1429.6557,406.83779 c 8.8953,-3.82708 21.2621,-15.72556 23.1902,-23.32021 1.398,-5.50615 -1.2171,-11.66736 -3.6268,-14.92719 -32.8755,-39.14168 -66.5247,-19.71015 -78.7884,10.69126 -1.6328,3.53596 -3.0994,8.84858 -3.2593,11.49385 -0.2844,4.70706 1.6614,6.68416 9.2623,10.71646 17.1859,9.11721 39.5277,11.23752 53.222,5.34583 z"
       style="fill:#ffffff;fill-opacity:1" />
    <path
       sodipodi:nodetypes="ccccccccscssscccscsscccccccc"
       inkscape:connector-curvature="0"
       id="path4689"
       d="m 1080.4206,864.1712 c -4.1611,-0.27483 -27.7397,7.50604 -41.6113,13.87638 l -15.961,7.33072 2.4942,5.37364 c 3.5071,7.55525 8.0427,9.60775 26.4531,10.64956 7.1728,0.16761 12.6893,1.0102 19.2667,2.88028 -10.4675,11.1001 -38.1077,34.70975 -39.128,44.46422 -7.3879,18.95098 -19.9864,26.59784 -29.7676,42.57842 -3.461,7.34033 -3.4799,9.46988 -0.2188,23.41248 1.6825,7.1935 4.0092,13.1411 6.625,16.9313 5.9217,8.5803 6.1414,14.3312 1.1016,28.8428 -3.4571,9.9543 -4.0566,13.2857 -3.4981,19.4257 0.8773,9.6451 9.6554,27.5962 20.2735,41.4553 4.3342,5.6571 9.9624,13.4682 12.5058,17.3573 10.2998,15.7502 18.1015,20.9981 29.9805,20.166 6.3278,-0.4432 7.4976,-1.0156 11.6816,-5.7154 2.5571,-2.8727 6.3106,-9.4703 8.3418,-14.6597 5.1685,-13.2047 9.1275,-18.798 14.3106,-20.2247 8.2254,-2.2641 21.6286,2.6163 34.7754,12.6615 12.8804,9.8418 13.0949,9.4808 6.0898,-10.1846 -4.6355,-13.0134 -4.8243,-14.2001 -4.8066,-30.2589 0.015,-14.4775 0.4463,-17.9178 3.2129,-25.7135 l 3.1933,-9.0009 -6.3183,-0.3223 c -42.4605,-2.4407 -42.7136,-40.4242 -47.0469,-55.93136 -13.8418,-42.66173 -16.5637,-77.36198 -12.2715,-118.25974 0.8553,-8.97879 1.2542,-16.61595 0.8867,-16.97048 -0.096,-0.093 -0.287,-0.14572 -0.5644,-0.16402 z"
       style="fill:#000000;fill-opacity:1" />
    <path
       inkscape:connector-curvature="0"
       id="path4687"
       d="m 873.5732,1071.8525 c 12.9697,-6.4824 22.2215,-16.8478 35.1856,-39.4209 12.8367,-22.3511 15.0347,-25.4051 29.7952,-41.3993 17.0512,-18.47644 19.9106,-23.77547 28.8871,-53.53172 5.8001,-19.22651 6.9265,-23.57334 6.109,-23.57334 -2.752,0 -24.784,15.81357 -39.4225,28.29571 -25.0279,21.34142 -45.6458,47.00537 -61.724,76.83055 -16.7607,33.9465 -29.2338,54.9629 -13.4432,56.7023 5.0415,0 8.8256,-1.0109 14.6128,-3.9033 z"
       style="fill:#000000;fill-opacity:1" />
    <path
       sodipodi:nodetypes="sssssscsscssssccsssscccssscccccscsscccsccccscsccsscccccscccscscscssssccccscsccscccccscsssssscccsssccssssscccccccscccscsssccccsccscscccssccssssscsssssssssssssssccccscssccssscsssssscsccsssccssscccccssssssssccsssccccsssscscscssssssscsscssssccccsccccccccccccscccssscccscccsccssccssssscsccccccsssccscscsssccccccscssscscccscccccccccscssssccccsscccsscccccscccssccscssscccccccccccccsccccssccsccccscsccccccssssscccccccssccsscccsscccccccsccssssssscccssscccsssssscssccscsscccsscsssssscscscscssssssscccssccccssscsccccsscssscssssccssssscccsssssccsscsccsscccscscscccssccssssssscccssssccccssscccsccsssscssccsscccssccccssssssscsscsscccccccsccsccccsccccccssscscccssssccsccccsscssssssccsscsscsscccscscsscccscssscscccccsssssscscsscsccccssscccsssscscscccccssccsccsssssccccsssscccsssssscsssssccssscccccsssccscccsssssccccccccccccccccccssssccccccccccscccccccccsscccccscccccccccccsccccccscccc"
       inkscape:connector-curvature="0"
       id="path4433"
       d="m 1331.1562,170.85547 c -9.6449,0.0874 -18.8448,0.83206 -25.4804,2.25976 -33.657,7.24162 -69.5995,26.34823 -96.7852,51.44922 -10.4573,9.65546 -24.9157,27.05931 -34.1933,41.15821 -13.8582,21.06009 -18.2582,32.07879 -21.4414,53.68554 -1.9821,13.45364 -2.1308,13.82952 -8.8692,22.78321 -17.8772,23.75436 -24.3442,43.80653 -24.3242,75.42187 0.01,12.52524 0.6273,18.05203 3.123,27.84961 2.1575,8.47004 3.1153,15.60548 3.1153,23.23633 l 0,11.01172 -17.1875,14.26758 c -25.5694,21.22601 -33.3128,32.83013 -39.0274,58.48828 -6.1675,27.69115 -8.6513,64.89372 -7.3554,110.16992 0.8883,31.03338 1.9679,43.78216 7.4629,88.13476 5.1711,41.73764 7.1401,62.11201 8.1347,84.1543 l 0.8555,18.98047 -3.0781,0 c -4.947,0 -23.0266,4.92482 -32.7305,8.91602 -9.338,3.84068 -46.31758,23.28004 -64.48828,33.90039 -60.3621,35.28 -94.88904,72.23629 -124.68164,133.45114 -23.0719,47.406 -35.62479,71.9313 -38.95899,76.1192 l -3.37304,4.2382 -14.34961,0.3262 c -17.7966,0.4033 -22.73916,1.5769 -62.91016,14.9473 -47.3429,15.7573 -57.61503,20.1794 -71.61133,30.832 -8.1729,6.2205 -11.22777,10.6246 -20.48047,29.5235 -3.5042,7.1574 -3.01454,14.49 1.00586,15.0605 2.5461,0.3612 2.76915,0.8969 2.08985,5 -0.4184,2.5277 -1.89049,7.3443 -3.27149,10.7031 -1.4273,3.4716 -2.59824,9.4064 -2.71484,13.752 -0.1848,6.8842 0.0551,7.6809 2.41211,8.0176 1.792,0.2559 3.7038,-1.0499 6.0625,-4.1426 3.1723,-4.1595 3.61577,-4.3633 5.60547,-2.5625 1.1885,1.0757 2.7936,1.9551 3.5664,1.9551 0.9504,0 1.16713,2.0104 0.66993,6.2089 -1.3966,11.7936 5.02105,18.4396 10.18945,10.5508 l 2.125,-3.2441 2.72266,2.5566 c 6.81799,6.4058 21.1222,10.0676 30.7246,7.8653 4.8112,-1.1034 5.94749,-0.9419 8.70899,1.2304 1.7468,1.3742 3.87045,4.1501 4.71875,6.168 1.8093,4.3036 4.78583,4.6939 8.58203,1.1269 2.2586,-2.1216 3.27477,-2.3228 6.16797,-1.2226 11.661,4.4339 31.55258,3.8366 66.86328,-2.0078 20.0936,-3.3257 31.45708,-6.5001 38.52148,-10.7578 2.253,-1.3578 8.13934,-3.3051 13.08204,-4.3282 4.9428,-1.0231 10.41249,-2.5963 12.15429,-3.496 1.7418,-0.9002 7.66797,-2.297 13.16797,-3.1036 16.6401,-2.4408 29.45704,-9.8106 40.67774,-23.3906 2.6695,-3.2308 8.61183,-13.2229 13.20703,-22.2051 4.5952,-8.9822 8.41623,-16.4273 8.49023,-16.5449 0.0742,-0.1175 4.63191,0.8622 10.12891,2.1777 5.4971,1.3154 12.84171,2.4024 16.32031,2.4024 l 6.32422,0.01 8.70312,11.5253 c 4.7862,6.3394 12.34483,14.5058 16.79883,18.1465 12.96813,10.5999 57.76463,31.1803 74.74223,34.3379 l 7.2734,1.3516 -1.5508,5.9785 c -2.5459,9.8158 -4.4991,29.7274 -3.5918,36.6133 0.4662,3.5382 2.0066,8.9645 3.4238,12.0586 1.7816,3.8895 2.4779,7.6635 2.2579,12.2304 -0.1838,3.8151 0.3244,7.3806 1.2031,8.4395 2.466,2.9715 5.9964,2.1344 8.0918,-1.918 2.1878,-4.231 2.6696,-4.3686 7.668,-2.1875 3.2355,1.4121 3.6181,2.2247 3.957,8.4375 0.5127,9.3995 5.6823,18.4946 12.4316,21.8692 4.2145,2.1072 5.148,3.285 5.8321,7.3535 1.1826,7.0335 2.8807,9.5312 6.4746,9.5312 2.5855,0 3.5988,-1.0819 5.6562,-6.0332 l 2.5078,-6.0312 6.4864,2.2402 c 7.1674,2.477 15.3055,2.9484 20.0136,1.1582 3.0272,-1.1511 3.073,-1.0663 3.5703,6.7442 0.277,4.3509 1.2524,8.8147 2.168,9.9179 2.4432,2.9442 5.3376,2.4734 11.2832,-1.834 5.1086,-3.701 5.4444,-3.7719 9.2891,-1.9472 2.1937,1.0411 7.6265,2.4835 12.0742,3.2051 22.3403,3.6249 41.3911,-0.7976 51.1094,-11.8672 2.9927,-3.4089 4.4113,-4.2451 5.4492,-3.2071 1.8242,1.8248 6.2568,1.8002 8.1015,-0.045 0.8931,-0.8932 1.1742,-3.4529 0.7325,-6.6758 l -0.7168,-5.2285 9.9375,0.5742 c 27.3947,1.586 47.8291,-14.0085 60.2734,-45.9961 1.8993,-4.8822 3.8176,-8.8427 4.2637,-8.8027 0.446,0.039 1.6285,0.072 2.6269,0.072 1.3538,0 1.91,1.9858 2.1875,7.8125 0.3335,7.0012 0.6623,7.8551 3.1661,8.2109 4.6368,0.6589 12.832,-10.3619 12.832,-17.2578 0,-1.3381 2.2907,-3.3553 5.9375,-5.2266 4.9715,-2.551 6.5989,-4.3581 10.0039,-11.1074 4.6002,-9.1182 7.1452,-23.2982 5.875,-32.7344 l -0.7969,-5.9238 4.9082,1.7324 c 15.5125,5.4736 46.8932,6.0041 79.0117,1.336 30.8422,-4.4826 40.2576,-4.8673 63.5157,-2.5899 35.7715,3.5029 63.3739,2.2087 77.3496,-3.6289 3.8199,-1.5956 3.9485,-1.5425 4.6367,1.8985 0.3893,1.947 2.6993,5.531 5.1328,7.9648 3.3366,3.3369 4.4258,5.4736 4.4258,8.6895 0,5.5863 2.487,11.3288 8.0722,18.6328 3.126,4.088 5.4505,5.9394 7.4571,5.9394 3.6404,0 5.9274,-2.6429 5.5898,-6.457 -0.6145,-6.9432 -0.4494,-7.0741 8.6699,-6.9336 6.6471,0.1024 9.5484,-0.4602 13.0782,-2.543 l 4.5351,-2.6777 5.627,8.4648 c 7.2487,10.9047 16.454,19.4622 25.4472,23.6524 5.7597,2.6837 9.004,3.3336 16.7051,3.3496 l 9.5567,0.022 1.498,6.875 c 3.1152,14.2936 8.2766,16.6274 13.1309,5.9375 1.6392,-3.6098 3.6515,-9.2629 4.4707,-12.5625 l 1.4883,-6 2.1777,3.5 c 7.5037,12.0566 25.1668,18.9222 45.3144,17.6152 9.2085,-0.5974 15.4857,-2.9107 20.6133,-7.5996 3.2757,-2.9953 2.9358,-3.259 6.1309,4.7344 2.2012,5.5069 2.9325,6.25 6.1543,6.25 3.4343,0 3.7681,-0.4558 5.4746,-7.5 0.9994,-4.1255 1.8648,-7.6164 1.9238,-7.7578 0.059,-0.1415 2.6167,0.6134 5.6836,1.6777 5.5463,1.9248 16.855,1.8547 21.5176,-0.1328 1.7505,-0.746 2.3467,-0.1572 2.9629,2.9238 2.5006,12.5046 11.7207,4.7887 11.7207,-9.8086 0,-4.9916 0.7639,-7.3573 3.6797,-11.3828 2.0246,-2.7952 4.3466,-8.0564 5.1601,-11.6914 1.4436,-6.4515 1.6183,-6.6455 7.2578,-8.1406 3.1776,-0.8424 7.1836,-1.5342 8.9024,-1.5352 4.5508,0 6.25,-1.9828 6.25,-7.2773 0,-2.5787 1.1791,-7.3551 2.6211,-10.6153 1.8862,-4.2648 2.6109,-8.4459 2.5859,-14.9043 -0.059,-15.0947 -4.2274,-29.13 -18.0449,-60.7441 -3.7565,-8.5945 -10.3394,-25.4559 -14.627,-37.4707 -14.3397,-40.1831 -20.511,-52.3564 -33.3847,-65.8379 -7.397,-7.7463 -7.841,-8.5756 -10.4629,-19.584 -2.2129,-9.2905 -2.9242,-17.3696 -3.7071,-42.123 -1.2827,-40.58153 -2.6524,-46.62957 -18.0507,-79.70706 -5.7441,-12.33892 -8.4254,-20.49657 -13.7657,-41.8789 -8.1078,-32.46362 -11.6755,-42.36214 -25.1445,-69.75196 -6.584,-13.38893 -11.4778,-25.21202 -13.0801,-31.60156 -1.4081,-5.61516 -8.1246,-26.80468 -14.9257,-47.08789 -18.2253,-54.3547 -21.2474,-66.01889 -24.418,-94.2832 -0.4566,-4.0699 -2.8085,-14.47681 -5.2266,-23.12695 -8.9085,-31.86857 -11.8801,-43.75333 -16.7519,-66.98243 -8.7121,-41.54053 -13.0266,-55.90563 -22.1543,-73.75781 -9.0208,-17.64325 -17.8489,-25.62394 -41.502,-37.51562 -15.5205,-7.80288 -19.1593,-10.80024 -20.8711,-17.20118 -2.6232,-9.80877 -11.2281,-20.54849 -28.5429,-35.62109 -8.8954,-7.74356 -19.0755,-15.51833 -22.6231,-17.2793 -6.42,-3.18682 -6.4563,-3.23983 -7.832,-11.14062 -3.9835,-22.87667 -24.1552,-69.06783 -39.5821,-90.63867 -12.0741,-16.88277 -35.8194,-40.3876 -50.5097,-49.99805 -26.0201,-17.02229 -65.1428,-33.07649 -97.7422,-40.10938 -9.3657,-2.02053 -22.5011,-2.99708 -34.9024,-2.88476 z m 4.0235,11.70117 c 14.7286,0.14879 29.8947,2.96209 47.3476,8.36133 31.3318,9.69276 54.0673,19.85292 73.2149,32.7207 40.0173,26.89287 63.8117,60.67207 82.5918,117.24219 14.8188,45.50712 2.5554,17.51056 7.2305,44.96289 3.4756,-1.87189 6.747,-6.41071 5.123,-6.98047 -3.4467,-3.83608 4.5095,-9.53732 6.3359,-4.65234 2.0341,1.05201 7.3428,5.11882 11.7989,9.03711 4.4561,3.91839 11.8265,10.41178 16.3789,14.42968 9.5742,8.45034 16.0996,17.60616 16.0996,22.59375 0,4.89169 10.8452,15.64285 21.875,21.68555 15.4642,8.47214 23.6459,13.5148 28.125,17.33008 6.6766,5.84778 10.9964,13.64686 14.9394,21.39453 3.783,4.0272 11.7619,28.70334 16.9707,52.49024 7.3972,33.78034 14.3899,63.21033 18.1387,76.33593 4.8102,16.84148 5.6351,20.81242 8.6953,41.87891 3.514,24.19 5.5389,31.79212 19.9863,75.00781 11.9414,35.71815 19.2516,61.26261 22.7188,79.38281 2.7093,14.15941 2.0365,47.27091 -1.2773,62.84766 -4.9158,23.1071 -14.1323,48.15262 -23.7969,64.66406 -7.5263,12.85838 -46.6803,50.1579 -67.4844,64.28711 -9.9225,6.73893 -52.9368,28.06503 -62.666,31.07033 -22.7954,7.0415 -55.0738,3.1298 -82.4043,-9.9883 -11.3714,-5.4579 -14.4388,-7.658 -23.7949,-17.0644 -8.779,-8.82648 -11.8228,-12.96866 -16.668,-22.67583 -8.7686,-17.56744 -14.6074,-44.82137 -14.6074,-68.17969 1.6789,-46.13848 10.4822,-96.79285 16.1289,-139.92773 4.4792,-1.42184 13.8343,-9.00647 18.2656,-14.81055 10.1029,-13.23261 15.0354,-29.57943 13.9629,-46.27539 -0.5939,-9.24581 -0.3311,-11.78722 1.6191,-15.625 5.6731,-11.16421 23.8467,-52.03504 23.9961,-53.96484 13.2824,-30.68814 29.6123,-59.35545 33.9727,-93.82227 4.3885,-19.73866 5.9965,-33.47852 5.5547,-47.44141 -0.3451,-10.90718 -0.579,-11.875 -2.8692,-11.875 -2.2793,0 -2.6761,1.55735 -4.6191,18.125 -3.762,32.07658 -10.5217,57.28535 -25.6152,95.52344 -7.9162,18.94899 -17.9134,41.2532 -26.8789,62.30469 -4.1152,9.1103 -8.0565,17.97057 -8.7579,19.68945 -1.2352,3.0269 -1.3286,2.94834 -2.998,-2.5 -5.217,-18.54694 -5.0501,-2.79969 4.5937,-36.43555 -0.7817,-0.26652 3.1577,-17.82624 9.918,-44.19726 16.858,-65.76043 18.0078,-72.33357 18.0078,-102.50977 0,-20.35432 -0.4836,-27.32669 -2.58,-37.5039 -3.2157,-15.61075 -2.3122,-30.73716 2.7207,-45.54883 1.8259,-5.37374 3.1197,-10.81848 2.873,-12.09961 -0.7283,-3.78227 -4.3458,-3.53761 -5.8184,0.39258 -0.7216,1.92589 -2.6966,6.80104 -4.3886,10.83594 -3.4936,8.33103 -3.2971,8.61787 -6.6055,-9.62305 -2.466,-13.59615 -3.9498,-16.69595 -7.3613,-15.38672 -1.9809,0.76017 -2.149,1.97183 -1.4707,10.51758 0.4215,5.31163 3.287,23.84864 6.3672,41.19336 7.6143,42.87576 8.6862,53.52514 6.9882,69.41211 -1.9493,18.23821 -4.4777,32.27123 -9.4707,52.58984 -16.2927,66.30139 -18.4993,75.70985 -21.0293,89.61133 -14.0423,-5.59035 -13.0284,-2.52785 -23.875,-23.61133 -3.1435,-7.39875 -9.4368,-20.66527 1.4532,11.73438 1.7747,4.12541 5.455,10.49447 8.1777,14.15234 4.0873,5.49134 6.0434,10.39339 11.2227,28.12695 7.6894,26.32801 8.6684,35.78431 4.9648,47.97852 -3.2756,10.78528 -11.0047,22.88523 -17.7305,27.75781 -11.8159,8.56025 -24.0702,9.78051 -45.0781,4.49219 -17.7452,-4.46705 -50.6082,-13.75871 -59.4863,-16.82031 -4.0043,-1.38094 -18.2954,-5.25876 -31.7578,-8.61719 -24.2428,-6.0476 -38.1115,-11.06134 -41.5411,-15.01563 -0.9761,-1.12561 -2.1219,-5.16839 -2.5468,-8.98437 -0.4249,-3.81608 -1.8303,-10.14535 -3.1231,-14.06446 -2.2687,-6.87868 -2.2712,-7.125 -0.064,-7.125 4.767,10e-6 15.8143,-5.22994 23.8847,-11.30664 27.7747,-20.91318 40.8817,-60.46607 28.4434,-85.83789 -9.9239,-20.24291 -35.7103,-29.09428 -68.6992,-23.58203 -34.1725,5.70996 -55.7043,23.51958 -59.9317,49.57617 -2.6799,16.51894 -0.7848,24.1535 7.3399,29.58204 2.3558,1.57405 6.0121,5.96002 8.125,9.74609 5.2214,9.35603 13.3491,18.49866 21.125,23.75976 6.7257,4.55067 19.8872,9.31251 25.7383,9.3125 3.2127,10e-6 3.5312,0.56857 6.2812,11.23633 3.4317,13.31193 2.9668,18.45554 -2.6133,28.92578 -2.1066,3.95289 -8.4109,12.71966 -14.0097,19.48243 -13.9307,16.82687 -18.5707,23.56047 -21.7989,31.63867 -3.43,8.58335 -3.4246,8.72656 0.2793,8.72656 3.4625,0 6.1688,-2.33423 8.959,-7.73047 1.8699,-3.61646 2.0188,-3.66962 4.375,-1.53711 1.3417,1.21442 2.0046,2.55944 1.4727,2.98828 -7.8574,6.33473 -13.0053,10.16645 -16.5957,12.35547 -2.4044,1.46585 -5.7793,2.66992 -7.4981,2.66992 -14.9542,0.0177 -54.1394,-41.07135 -61.8847,-64.89062 -2.9074,-8.94138 -1.9173,-28.18368 2.3964,-46.5957 14.7304,-125.18906 16.4471,-164.99653 2.0879,-82.27735 -1.4245,9.28212 -3.0697,19.97028 -3.6543,23.75196 l -1.0625,6.875 -6.4843,-13.75 c -10.1172,-21.43112 -19.5821,-46.73872 -27.1133,-72.67969 -5.9466,-26.92098 -6.8602,-36.42826 -6.5293,-67.95899 -0.5944,-37.47862 -4.5959,-61.84797 -5.9922,-75.32031 5.9718,-61.26108 46.3125,-91.93555 46.3125,-91.93555 0.3483,-2.39594 -1.6055,-2.58593 -1.6055,-2.58593 -1.5985,-0.0902 -4.0763,0.46248 -5.5039,1.22656 -2.3566,1.25062 -3.7434,2.18752 -7.9277,6.16992 -2.4889,2.06581 -2.5134,2.18719 2.8027,-14.38086 5.3402,-16.64315 15.3591,-33.23562 32.4981,-53.82226 8.0596,-8.487 6.9633,-7.62459 17.2304,-17.5918 27.169,-24.49954 41.5766,-32.2611 60.9942,-40.27148 21.4169,-8.78085 39.6295,-12.99404 58.5664,-12.80274 z m 29.8711,98.33008 c -12.0959,5e-4 -15.5549,0.46142 -21.8125,2.91406 -14.1012,5.52685 -24.7076,19.52069 -26.543,35.01953 -0.6462,21.77316 4.5098,1.90821 4.5098,1.90821 l 2.0586,-4.97266 c 12.2127,-29.50433 40.0541,-34.45999 89.9121,-16.00586 10.5214,3.89428 36.0562,15.48509 37.0058,16.92383 0.3719,0.56345 2.5879,1.87675 3.6192,1.96875 1.0312,0.0925 3.7031,0.52369 5.9375,0.95703 3.2484,0.62996 4.0625,0.37901 4.0625,-1.25586 0,-2.13281 -6.4701,-6.69095 -18.1504,-12.78516 -6.7777,-3.57305 -12.8222,-7.31227 -25.3496,-11.72461 -23.3982,-9.75877 -37.0079,-12.94796 -55.25,-12.94726 z m -153.9375,22.7539 c -2.383,0.0238 -4.8079,0.60313 -6.6914,1.46094 -1.556,0.68211 -1.8986,0.82392 -1.6387,2.18946 0.285,1.49805 2.0672,1.85681 5.3008,2.8125 8.4891,2.50896 1.2076,0.20953 9.8047,2.99414 2.3131,0.74923 7.1202,7.46983 10.2988,15.78906 3.4034,8.90739 5.8323,11.49807 8.3887,8.9414 2.0543,-2.0545 -2.0232,-16.95519 -6.586,-24.0664 -3.8466,-5.995 -10.2674,-9.86022 -16.5293,-9.94922 -0.7632,-0.12552 -1.5533,-0.17982 -2.3476,-0.17188 z m 196.9668,32.48633 c -5.2047,0.0887 -10.1967,1.06357 -13.9981,2.73633 -7.7096,3.39264 -18.7844,15.23102 -24.5957,26.29102 -4.8884,11.43414 -2.9835,6.2598 -5.9609,16.55273 -6.3235,17.62685 5.2113,21.27051 34.1289,34.54883 7.7234,1.51635 20.7513,1.53205 27.2519,0.0332 14.7454,-3.39964 29.4279,-15.45457 32.8204,-26.94531 1.128,-3.82058 2.294,-5.48437 3.8457,-5.48437 2.8498,0 2.7743,-1.79673 -0.3653,-8.71876 -5.978,-13.1802 -22.4517,-29.38325 -36.957,-36.34765 0,0 -11.9892,-2.60902 -16.1699,-2.66602 z m 7.9043,19.44532 c 3.5578,-0.16809 6.3304,3.68014 3.9336,6.56835 -1.4991,1.80638 -5.1225,2.29761 -6.5352,0.88477 -1.5528,-1.55295 -0.8429,-6.39741 1.043,-7.12109 0.5275,-0.20246 1.0503,-0.30802 1.5586,-0.33203 z m -27.9414,1.29492 c 0.7077,-0.14843 0.7578,1.4344 0.7578,6.13867 0,3.95109 0.8353,9.18432 1.8574,11.63086 0.2448,3.07691 0.8175,4.15013 -0.1055,5.875 -0.3099,0.57915 -0.4957,1.29831 -0.625,1.92187 -0.1639,0.78998 -0.2371,1.42577 -0.3574,1.42579 -0.2151,-10e-6 -1.4325,-2.30858 -2.7051,-5.13086 -3.0604,-6.78737 -3.1933,-17.772 -0.2519,-20.7168 0.6511,-0.65191 1.108,-1.07706 1.4297,-1.14453 z m 46.7402,1.44922 c 0.2682,-0.057 0.8155,0.61485 1.7852,1.8125 6.3406,7.83108 -1.0243,25.24266 -13.1622,31.11914 -9.4654,4.58266 -22.0404,3.10611 -29.4628,-3.46094 -2.4181,-2.13941 -2.6946,-2.98451 -1.4629,-4.46875 1.3065,-1.57446 2.2303,-1.31565 6.6074,1.85547 8.949,6.48324 22.508,4.56576 29.8672,-4.22461 3.7603,-4.49145 6.4108,-12.78016 5.8769,-18.37891 -0.2769,-2.90431 -0.3932,-4.18059 -0.049,-4.2539 z m -274.5254,9.78125 c -0.5356,0.001 -1.0233,0.0435 -1.457,0.12695 -8.9383,1.71867 -13.5301,6.92099 -7.5,8.49805 1.376,0.35984 2.197,0.16 1.8242,-0.44336 -1.0252,-1.65897 5.1163,-2.80184 7.7461,-1.44141 7.0509,3.55106 22.4225,9.55122 31.6797,18.47461 l 3.125,3.48242 -4.3809,-3.25586 c -4.8895,-3.63406 -8.9819,-5.40638 -17.9844,-7.78711 -23.9729,-6.12651 -36.8317,22.905 -32.7832,48.39453 1.542,8.22062 7.6638,15.51301 16.7891,20.00196 7.7291,3.80218 9.2107,4.09208 20.8398,4.08008 11.3437,-0.0122 13.1611,-0.34899 19.3536,-3.59571 3.7588,-1.9707 8.3995,-5.25854 10.3125,-7.30664 3.2599,-3.49015 3.4785,-3.55411 3.4785,-1.00976 0,1.49305 -0.4752,3.66229 -1.0547,4.82031 -0.5795,1.15801 -0.6467,6.60492 -0.1504,12.10547 1.3771,5.59442 -2.9627,17.05999 -0.1749,18.27101 3.6998,-3.44176 7.7377,-11.27789 8.7628,-16.55422 3.5071,-14.0473 3.6897,-18.44257 2.4453,-30.46875 -1.4527,-20.0698 -9.159,-35.7882 -23.8477,-48.63867 -10.152,-8.88172 -28.9898,-17.77642 -37.0234,-17.7539 z m 285.418,1.80078 2.6328,3.5625 c 2.4097,3.25982 2.5035,4.07393 1.1055,9.58008 -1.9281,7.59465 -10.8977,17.05963 -19.793,20.88671 -13.6943,5.89169 -33.9938,3.77151 -51.1797,-5.3457 -7.6009,-4.0323 -7.761,-4.22262 -7.4766,-8.92969 0.1599,-2.64526 1.627,-7.70428 3.2598,-11.24023 l 2.9688,-6.42773 1.4238,5.11914 c 2.8926,10.39703 12.0822,19.52985 23.1758,23.0332 6.5148,2.0575 18.9663,0.93849 25.2539,-2.26953 5.0483,-2.57576 12.7833,-10.17578 15.4746,-15.20508 0.7856,-1.46795 1.8167,-4.94072 2.291,-7.7168 z m -269.5371,28.97265 c 1.7607,-0.0134 3.2871,1.6126 3.2871,4.38282 0,2.88519 -0.6203,3.82096 -2.7285,4.12109 -3.6425,0.51876 -5.9293,-3.55686 -3.7032,-6.60156 0.948,-1.2965 2.0881,-1.8943 3.1446,-1.90235 z m -23.2051,5.81641 c 0.2748,0.0451 0.5098,1.63478 0.9785,5.16797 1.1777,8.87798 6.1334,15.68489 12.4688,18.47656 3.4341,1.51326 7.2737,1.84697 11.1367,0.68945 6.1655,-1.84738 13.3008,-9.96226 14.8613,-16.90234 l 1.1523,-5.13281 0.1348,4.73828 c 0.1438,5.0914 -3.1315,12.68566 -6.9668,16.1543 -1.3015,1.17702 -4.4359,3.005 -6.9668,4.0625 -1.265,0.52866 -2.7372,1.00411 -4.0879,1.34375 -1.3517,0.33993 -2.5825,0.54525 -3.3672,0.53125 -11.3283,-0.19432 -22.8617,-15.40309 -20.1875,-26.6211 0.3919,-1.64363 0.6301,-2.54288 0.8438,-2.50781 z m 47.8965,13.67969 0,0 c 0.3383,-0.0238 0.7529,0.21907 1.3125,0.68359 3.6677,3.04421 5.4711,8.2095 4.1133,11.78125 -2.1803,5.73497 -6.1626,10.39788 -11.6075,13.58789 -8.9426,5.23932 -25.2613,6.1732 -33.5156,1.91797 -7.5414,-3.88758 -13.5959,-12.06198 -13.5859,-18.34961 l 0,-3.5 2.4472,4.01367 c 3.0644,5.0263 10.8294,10.24333 17.4649,11.73438 6.1736,1.38723 15.3654,-0.4194 20.7285,-4.07617 4.5751,-3.11941 10.1307,-10.61481 11.2891,-15.23047 0.4366,-1.73999 0.7857,-2.52279 1.3496,-2.5625 z m -76.5332,79.2539 c 0.4149,0 0.7377,2.10914 0.7187,4.6875 -0.1207,9.0919 2.7266,2.98537 -1.9824,24.06446 -1.5702,5.11441 -2.1424,11.91869 -2.2344,26.56445 -0.047,9.03569 0.1957,20.36363 2.7207,31.25391 4.7168,36.99077 14.09,67.33169 27.2051,88.06054 8.0728,12.75937 14.3374,17.71365 14.3184,11.32422 0,-1.54706 -1.1607,-4.4998 -2.5684,-6.5625 -7.5369,-11.044 -18.2483,-36.65328 -21.9609,-52.50586 -2.5476,-10.98689 -3.2245,-22.38423 -6.2188,-33.25781 -2.9182,-12.55725 -8.935,-32.1649 -4.2949,-47.15039 1.1397,-1.95269 1.2267,-1.95435 1.2617,-0.0117 0.034,1.88399 7.296,28.04721 9.4824,34.16602 3.8803,11.26412 7.9967,23.47572 13.6543,35.3164 2.5545,6.01619 7.9222,17.14517 11.9297,24.73242 9.7625,18.48294 10.2858,23.05646 5.1387,44.96094 -7.2984,31.05968 -7.9477,44.32639 -2.918,59.5625 7.488,22.68335 41.9315,60.28916 61.8828,67.56445 5.0871,1.85501 7.6742,3.5611 8.4336,5.5586 1.5758,4.14501 5.9172,27.93854 7.4727,40.95703 3.3857,41.55212 4.6653,93.94596 -14.6817,137.45898 -11.8347,19.48507 -34.0711,35.09697 -63.4804,44.57227 -75.1925,23.4258 -72.8229,-87.98346 -79.541,-148.91211 0.7893,-8.52125 1.4839,-20.97893 1.5429,-27.68359 1.2444,-35.85456 -1.4641,-72.64887 -7.5683,-110.94727 -7.0225,-53.59192 -7.9828,-66.70408 -7.9688,-108.75976 0.022,-68.79083 6.7977,-103.63077 23.8418,-122.58985 5.3418,-5.94189 24.3163,-22.42383 25.8145,-22.42383 z m 173.5879,234.39844 9.5761,4.67383 c 5.8581,2.85899 16.5902,6.37819 27.6446,9.06445 9.9383,2.41504 26.2265,6.90216 36.1953,9.97266 9.9687,3.07051 20.0937,6.07072 22.5,6.66797 l 4.375,1.08594 -4.375,2.71874 c -11.0068,6.83678 -36.5532,14.65831 -61.5742,18.85352 -18.513,3.10401 -33.6981,4.05287 -40.8653,2.55274 -6.2869,-1.31593 -16.6483,-6.26599 -21.9258,-10.47461 l -3.5351,-2.81836 12.1992,-14.27344 c 6.7088,-7.84998 13.9035,-17.36686 15.9902,-21.14844 z m 112.8769,34.5918 17.3945,4.26758 c 11.8832,2.91599 20.3407,4.26953 26.6915,4.26953 l 9.2968,0 -0.83,8.4375 c -0.4567,4.64106 -3.0386,23.91018 -5.7383,42.81836 -7.8602,55.05137 -9.4316,86.85249 -5.6211,113.75976 2.0402,14.40644 7.8344,34.57506 12.7461,44.36133 10.4303,20.78181 30.259,39.36301 51.5097,48.27151 26.8174,11.2422 62.9487,14.1462 85.7129,6.8886 9.5948,-3.059 43.6263,-19.6611 60.625,-29.5761 16.453,-9.5966 57.8257,-47.27782 70.1309,-63.87307 9.9919,-13.47554 22.1691,-42.26354 27.9141,-65.99219 3.6594,-15.11541 6.1493,-37.96494 5.5117,-50.5918 -0.2585,-5.13171 -0.3538,-9.21507 -0.211,-9.07226 0.7269,0.72707 9.1355,21.25447 11.6035,28.32617 1.5597,4.46915 5.81,20.06165 9.4454,34.65039 5.4518,21.87798 8.0302,29.65255 14.7109,44.37891 14.0391,30.94667 16.9354,44.06833 17.1953,77.86135 0.063,8.2508 0.8369,20.3451 1.7188,26.8769 0.8818,6.532 1.4082,12.1116 1.1679,12.3985 -0.2403,0.2867 -2.6539,-1.262 -5.3633,-3.4395 -5.8748,-4.7216 -8.8242,-5.0926 -8.8242,-1.1113 0,2.0144 4.1681,6.7587 14.2442,16.2168 25.8958,24.3079 29.1473,30.0509 48.6738,85.9472 3.723,10.6572 10.7651,29.0863 15.6504,40.9532 8.7161,21.1726 12.6816,34.2238 12.6816,41.7422 l 0,3.7851 -3.8457,-3.2363 c -6.0561,-5.0963 -17.4566,-4.2431 -22.0859,1.6543 -1.3686,1.7435 -2.125,1.3372 -6.25,-3.3652 -5.3445,-6.0933 -11.1756,-10.2566 -14.3809,-10.2696 -4.1252,-0.016 -2.2784,5.4853 4.8223,14.3692 3.8469,4.8129 8.0642,10.8426 9.373,13.4004 3.4885,6.8162 6.2718,18.5474 5.4219,22.8535 -1.6643,8.432 -1.8887,8.5865 -4.5703,3.166 -4.1092,-8.3063 -13.3397,-11.2333 -21.0508,-6.6778 -5.1441,3.0391 -6.9144,8.0127 -5.0586,14.2071 1.2207,4.0748 2.5511,5.4836 7.5899,8.0371 7.353,3.7265 8.3876,5.1003 5.1523,6.832 -6.1761,3.3057 -22.9119,-0.6456 -24.6601,-5.8222 -0.4161,-1.2321 -1.7553,-4.4919 -2.9747,-7.2422 -1.3831,-3.1206 -2.4976,-9.7288 -2.9648,-17.5782 -1.8551,-31.1717 -13.8509,-55.6573 -30.8496,-62.9707 -6.0838,-2.6174 -8.668,-2.5705 -8.668,0.1563 0,0.7381 3.6523,4.6874 8.1153,8.7773 6.2665,5.7427 9.2524,9.7622 13.1132,17.6485 5.1977,10.6173 8.7715,26.3063 8.7715,38.5058 l 0,6.086 -4.4316,0 c -5.1325,0 -9.971,4.0588 -11.3399,9.5136 -0.7601,3.0286 -0.2056,4.0285 4.2754,7.7286 5.0759,4.1913 5.118,4.2943 3.0664,7.4257 -3.0258,4.6185 -8.9557,6.586 -19.8574,6.586 -13.5342,0 -22.1116,-2.9582 -29.6777,-10.2324 -6.66,-6.4038 -6.8419,-7.5512 -2.832,-17.8965 3.3574,-8.6619 2.6645,-24.0454 -1.6661,-36.9727 -6.1693,-18.4158 -16.4994,-37.4062 -20.3496,-37.4062 -3.5355,0 -2.6796,4.0722 4.8086,22.9121 10.4218,26.2206 11.7788,34.7638 7.7266,48.6543 -1.3426,4.6024 -3.4727,6.3954 -3.4727,2.9238 0,-0.9702 -1.7304,-3.2199 -3.8457,-5 -6.7332,-5.6662 -15.8783,-3.6268 -20.0039,4.4609 -2.7334,5.3583 -3.151,11.7468 -0.8379,12.8243 0.8594,0.4003 -1.25,0.4085 -4.6875,0.017 -8.9759,-1.0183 -15.93,-4.7749 -22.7695,-12.2988 -6.3771,-7.0152 -25.9809,-38.9543 -33.4473,-54.4941 -5.8099,-12.0922 -12.3053,-20.021 -14.5781,-17.7969 -1.3137,1.2858 -1.3151,2.333 -0.018,5.625 0.8774,2.225 3.257,8.6712 5.2891,14.3242 3.3889,9.4269 9.0483,21.0638 13.2207,27.1895 0.9238,1.3562 1.6797,3.0688 1.6797,3.8046 0,1.5237 -9.5735,4.3536 -14.707,4.3536 -3.0435,0 -3.4545,-0.5064 -3.7461,-4.5782 -0.1802,-2.5166 -1.024,-5.415 -1.875,-6.4414 -2.277,-2.7461 -8.9574,-5.2285 -14.0684,-5.2285 -4.0546,0 -4.7044,-0.5019 -6.8887,-5.3144 -4.238,-9.3376 -3.1019,-17.9151 5.916,-44.6914 l 5.6836,-16.877 1.0352,-28.127 c 1.7322,-47.116 4.7384,-60.7917 17.6601,-80.3203 8.4466,-12.7654 29.2015,-34.2968 38.8028,-40.2558 8.6236,-5.3522 7.1383,-9.2336 -2.1778,-5.6914 -5.5511,2.1108 -2.4405,-0.618 10.6036,-9.3028 6.8805,-4.581 12.5117,-8.87878 12.5117,-9.55075 0,-2.48434 -4.0332,-2.64596 -9.1192,-0.36523 -15.3106,6.86578 -36.0835,24.47948 -42.9316,36.40428 -1.878,3.27 -6.6644,10.4683 -10.6367,15.9961 -8.5688,11.9242 -18.0401,31.3201 -19.8867,40.7266 -3.2601,16.607 -3.8174,22.1239 -4.9141,48.6093 -1.1054,26.6972 -1.3621,28.7001 -5.0566,39.379 -6.9214,20.0058 -7.5654,22.342 -9.127,33.1269 l -1.5391,10.627 -10.582,3.6992 c -9.9564,3.4805 -11.6913,3.6966 -29.332,3.6386 -10.3125,-0.034 -28.875,-1.0509 -41.25,-2.2597 -25.3227,-2.4734 -33.667,-2.1549 -66.0547,2.5137 -15.9502,2.2991 -26.3778,3.0332 -43.0215,3.0332 -26.0582,0 -37.3261,-1.5403 -38.5078,-5.2637 -0.4402,-1.3875 -0.4173,-9.0681 0.053,-17.0684 0.9716,-16.5575 -1.1012,-56.4428 -3.4199,-65.8008 -1.2116,-4.8895 -2.1466,-6.3354 -4.291,-6.6406 -4.0542,-0.577 -4.6531,5.0692 -2.9922,28.1934 2.5587,35.6249 2.5271,33.9674 0.6172,33.2344 -3.2174,-1.2348 -3.3766,3.4903 -0.6856,20.2441 4.8527,30.2133 3.1761,48.4985 -5.1914,56.6094 -4.1793,4.0511 -4.1931,4.0529 -6.4785,1.5273 -6.1953,-6.0599 -15.4427,3.064 -13.6601,-3.1562 0.4173,-2.0627 1.8595,-9.0932 3.2031,-15.625 1.3437,-6.532 2.7789,-15.7252 3.1894,-20.4278 0.7377,-8.45 0.7108,-8.5446 -2.2109,-8.125 -3.4927,0.5014 -5.8911,6.756 -13.0254,33.9551 -11.7402,44.7592 -20.9571,61.0152 -39.414,69.5234 -7.1008,3.2734 -11.0995,4.2558 -19.461,4.7774 -9.9732,0.6223 -10.5234,0.5235 -10.5234,-1.8926 0,-1.4022 1.6875,-5.7584 3.75,-9.6797 4.7043,-8.9441 4.7126,-11.3123 0.061,-13.7187 -6.7624,-3.4973 -16.6962,-1.732 -20.3066,3.6094 -1.6187,2.3946 -2.7663,-0.5802 -3.2305,-8.377 -0.3333,-5.5961 0.4366,-11.0839 2.7539,-19.6426 3.4523,-12.7505 4.0421,-19.3472 1.8516,-20.7012 -2.4498,-1.5142 -4.5821,2.3403 -8.6875,15.7012 -6.3005,20.5046 -6.5376,34.2132 -0.7383,42.7598 1.5887,2.3414 3.2532,6.9082 3.6973,10.1484 0.4441,3.2403 1.6555,7.5338 2.6933,9.541 1.8257,3.5307 1.7518,3.7938 -2.3086,8.0996 -2.3083,2.4476 -6.9457,5.6967 -10.3047,7.2208 -5.0434,2.288 -8.6097,2.8085 -20.4824,2.9824 -14.015,0.2053 -23.75,-0.3715 -23.75,-1.4063 0,-0.2822 1.8034,-3.0702 4.0059,-6.1953 3.2289,-4.5813 4.0999,-7.1905 4.4961,-13.4746 0.4139,-6.5634 0.063,-8.3371 -2.2207,-11.2324 -4.4658,-5.6617 -10.4046,-4.4673 -19.0938,3.8398 -5.5272,5.2841 -5.4812,5.4906 -2.8593,-12.9023 2.2953,-16.1022 6.4367,-28.1592 14.4296,-42.0098 6.0947,-10.5614 7.6354,-16.7461 4.17,-16.7461 -1.6023,0 -13.8336,16.3017 -17.2696,23.0176 -5.8642,11.4621 -10.2765,29.3545 -11.5039,46.6484 -0.6581,9.2717 -1.2113,11.39 -3.373,12.9043 -2.7175,1.9035 -8.4064,2.2812 -15.8418,1.0508 l -4.4356,-0.7344 2.9004,-5.8613 c 1.5953,-3.2238 3.2279,-8.6519 3.627,-12.0644 0.5963,-5.0989 0.2615,-6.7912 -1.875,-9.4922 -3.1962,-4.0407 -8.2495,-5.1475 -13.4961,-2.9551 -5.1481,2.1512 -7.9944,6.6505 -10.4942,16.582 l -2.0273,8.0489 -2.7207,-3.459 c -1.4967,-1.903 -3.0535,-4.7824 -3.459,-6.3985 -2.2412,-8.9306 6.4332,-29.44 17.582,-41.5683 10.714,-11.6553 8.7776,-16.8938 -3.039,-8.2188 -8.4599,6.2107 -14.3239,13.0978 -18.8633,22.1543 -4.7433,9.4632 -4.0934,8.702 -6.5996,7.7403 -1.8805,-0.7219 -1.8406,-1.1664 0.4453,-4.8653 2.5284,-4.0916 3.2695,-10.0927 1.5606,-12.6523 -1.2437,-1.8624 -5.9328,-4.25 -8.3458,-4.25 -1.081,0 -3.1907,1.4108 -4.6894,3.1347 -2.0134,2.3157 -2.9856,2.7237 -3.7227,1.5625 -3.0799,-4.8518 0.7246,-32.7012 7.0528,-51.625 6.8203,-20.3952 21.3911,-43.0219 38.2773,-59.4414 10.608,-10.3147 19.9596,-15.6861 33.6328,-19.3164 4.4687,-1.1865 14.0312,-4.5795 21.25,-7.539 13.8137,-5.6632 32.0023,-12.7034 44.0625,-17.0547 5.2393,-1.8904 7.1875,-3.2216 7.1875,-4.9141 0,-3.6608 -9.349,-3.0011 -21.5254,1.5195 -17.5968,6.533 -38.7396,13.8478 -46.7422,16.17 l -7.6425,2.2168 -0.6992,-8.3008 c -0.4085,-4.8491 -3.1784,-15.8414 -6.6602,-26.4297 -5.679,-17.2704 -5.9642,-18.8047 -6.0332,-32.502 -0.061,-12.1744 0.3976,-15.7164 2.9961,-23.1269 1.6878,-4.813 3.1311,-8.881 3.2051,-9.0391 0.074,-0.158 5.5512,-1.6942 12.1699,-3.414 39.29,-10.2095 71.7943,-35.076 82.1992,-62.8848 7.3245,-19.57614 13.9295,-56.74969 13.9395,-78.42774 0.01,-25.43153 -6.1364,-75.10139 -11.3789,-91.94726 l -2.3379,-7.50977 4.8398,-2.46875 c 2.6615,-1.35794 8.3854,-5.78795 12.7207,-9.84375 6.8548,-6.41294 8.1645,-7.167 10.0488,-5.78906 2.0318,1.48584 1.9721,2.00976 -0.9668,8.42969 -3.3417,7.30003 -6.8652,27.07426 -6.8652,38.49609 0,17.96029 2.4039,27.9988 5.8672,24.53516 0.4271,-0.42714 1.4906,-10.83413 2.3633,-23.12696 1.2699,-17.88667 2.2445,-24.31628 4.8789,-32.19336 1.8105,-5.41364 3.7246,-10.28686 4.2539,-10.82812 3.9987,-4.0887 20.4235,12.56079 31.3848,31.8125 12.8442,22.55864 24.0402,32.01432 39.3593,33.24414 6.0594,0.48645 7.9189,0.19134 9.3047,-1.47852 2.4284,-2.9264 0.2845,-4.64355 -10.3867,-8.32031 -10.0498,-3.46274 -17.4767,-9.48836 -23.3438,-18.9375 -12.0866,-19.46583 -14.7901,-23.36824 -20.2109,-29.16992 l -5.9219,-6.33594 14.0293,-1.49023 c 34.6647,-3.68007 74.4408,-16.17227 87.2188,-27.39258 z m -332.9316,98.76758 c 0.2531,0.0173 0.4258,0.0685 0.5137,0.15625 0.3351,0.33534 -0.028,7.55974 -0.8086,16.05468 -0.9854,10.72446 -2.024,16.11377 -3.3965,17.63282 -1.0872,1.20322 -3.4366,2.10135 -5.2207,1.99414 -1.7841,-0.10731 -9.7109,-0.57512 -17.6172,-1.03907 -16.7978,-0.98569 -20.5247,-2.50228 -23.7246,-9.65039 l -2.2774,-5.08398 14.5625,-6.93359 c 12.6566,-6.02704 34.1722,-13.3909 37.9688,-13.13086 z m -55.209,22.28125 c 0.4131,0 1.8315,2.39031 3.1523,5.3125 2.0549,4.54605 3.3046,5.62208 8.6524,7.44726 3.822,1.30433 10.6204,2.20084 17.5,2.31055 6.1875,0.0986 12.6563,0.57676 14.375,1.0625 l 3.125,0.88476 -3.8301,3.67969 c -2.1061,2.0241 -7.8824,7.48822 -12.8359,12.14258 -12.0151,11.28932 -23.4369,26.85416 -25.8848,35.27539 -1.556,5.35304 -4.0127,8.91604 -12.5312,18.16016 -11.6472,12.63925 -11.8716,12.96679 -14.78716,21.61914 -1.9118,5.67331 -1.88029,6.72061 0.56446,18.75191 1.7536,8.6301 3.7484,14.5574 6.1797,18.3672 6.7767,10.6193 6.8309,11.3808 1.918,26.4571 -5.0019,15.3488 -5.2231,17.8833 -2.4024,27.3828 3.1257,10.5262 9.3467,21.8462 19.8789,36.1699 5.3084,7.2195 11.0569,15.3766 12.7754,18.1269 6.9335,11.0966 14.8072,17.0115 24.875,18.6875 12.0849,2.0119 20.3829,-3.9796 26.6895,-19.2753 5.704,-13.8341 9.5892,-19.8847 13.3789,-20.836 2.009,-0.5042 6.4541,0.2046 11.5156,1.836 7.9977,2.578 11.1133,4.381 20.623,11.9355 2.4919,1.9796 6.3299,3.9682 8.5293,4.418 4.5874,0.9383 5.6506,3.3932 5.8438,13.5097 l 0.125,6.5254 -8.4375,4.0508 c -6.2568,3.0041 -11.3663,6.9713 -19.7676,15.3516 -15.0118,14.9741 -22.7648,25.6559 -31.9687,44.041 -4.1957,8.3812 -8.4374,15.5484 -9.4258,15.9277 -2.8955,1.1112 -12.3338,-1.4951 -26.6407,-7.3554 -42.3981,-17.3667 -54.67875,-25.8943 -70.27925,-48.8125 -3.7443,-5.5005 -11.76788,-17.3156 -17.83008,-26.254 -12.3885,-18.266 -18.72958,-25.5405 -26.83398,-30.7832 -5.3512,-3.4617 -12.56641,-4.8509 -12.56641,-2.4199 0,0.6459 4.3594,5.5875 9.6875,10.9824 6.5576,6.6399 12.7878,14.8399 19.2832,25.379 5.2777,8.5626 9.41301,15.751 9.19141,15.9726 -0.7624,0.7626 -21.30541,-4.5883 -32.53711,-8.4746 -23.4782,-8.1239 -32.9027,-10.1671 -50,-10.8379 -20.0478,-0.7866 -33.55291,0.5776 -34.10351,3.4434 -0.4618,2.4029 6.3925,3.6152 20.4375,3.6152 14.3915,0 27.47861,2.311 43.66601,7.7129 8.25,2.7531 15.17387,5.1804 15.38867,5.3926 0.7193,0.7105 -11.29328,23.6908 -16.02148,30.6484 -5.4076,7.9572 -15.27342,17.5393 -21.22852,20.6191 -3.972,2.0542 -4.08812,2.0485 -3.07812,-0.1777 1.6039,-3.5354 1.40199,-13.2659 -0.28711,-13.8398 -0.8122,-0.2758 -5.20853,3.42 -9.76953,8.2129 -5.564,5.8471 -11.18312,10.232 -17.07422,13.3281 -7.3842,3.8808 -8.56347,4.2108 -7.41797,2.0703 0.749,-1.3999 1.36328,-5.434 1.36328,-8.9648 0,-5.8211 -0.24686,-6.3838 -2.63476,-6.0215 -1.8554,0.2814 -3.31843,2.2115 -4.95313,6.5332 -5.6949,15.0558 -16.45401,20.4178 -53.03711,26.4316 -11,1.8083 -26.36513,3.5987 -34.14453,3.9785 l -14.14453,0.6914 3.83203,-3.832 c 7.3559,-7.3566 3.18371,-17.7754 -7.11719,-17.7754 -6.5293,0 -17.22828,5.539 -20.77148,10.7539 -3.0628,4.5077 -4.5293,4.4001 -4.5293,-0.3301 0,-3.2274 4.30207,-6.7628 17.91797,-14.7265 5.7895,-3.3861 8.33203,-5.6218 8.33203,-7.3262 0,-2.1265 -0.64434,-2.3654 -4.83984,-1.8027 -11.4781,1.5398 -30.16016,13.7756 -30.16016,19.7539 0,5.5787 -15.66359,6.7548 -24.99219,1.8769 l -5.61718,-2.9355 5.75781,-2.7988 c 9.5981,-4.6636 12.35119,-13.4477 5.67969,-18.1211 -3.0849,-2.1609 -11.14968,-2.4307 -14.76758,-0.4942 -4.1268,2.2087 -3.98331,0.4657 0.37109,-4.4941 5.5804,-6.3564 12.16126,-10.283 24.09766,-14.3789 14.3707,-4.9313 14.4707,-4.9843 14.4707,-7.7793 0,-2.3635 -0.5994,-2.4914 -9.0625,-1.9317 -14.5121,0.9597 -30.01126,8.7702 -37.25976,18.7774 -2.0234,2.7935 -3.67774,4.2388 -3.67774,3.2109 0,-2.2743 -3.55322,-5.5891 -6.63672,-6.1914 -2.013,-0.3933 -1.82988,-1.0895 1.66992,-6.3633 4.8976,-7.3802 14.74229,-15.2722 27.5879,-22.1172 15.92318,-8.4852 11.46711,-12.006 -6.55469,-5.1796 -3.8815,1.4703 -10.44559,4.8634 -14.58789,7.541 -8.2503,5.333 -9.76246,4.8055 -7.66016,-2.6699 3.5368,-12.577 25.59118,-25.8701 60.95508,-36.7403 8.0301,-2.4683 25.57036,-8.0682 38.97656,-12.4453 13.4063,-4.3769 27.4688,-8.3062 31.25,-8.7305 3.7813,-0.4245 8.2813,-0.9966 10,-1.2715 1.7188,-0.2745 2.4219,-0.1942 1.5625,0.1797 -2.277,0.9904 -1.98385,6.7227 0.34375,6.7227 3.5433,0 18.69189,-8.4932 22.65039,-12.6992 4.9731,-5.284 11.32942,-15.4408 16.69922,-26.6797 2.2995,-4.8129 4.97657,-9.9938 5.94727,-11.5117 l 1.76367,-2.7598 2.67969,2.4961 c 7.4828,6.972 22.21806,3.3201 37.78906,-9.3652 9.3534,-7.6199 11.27455,-10.1413 22.46875,-29.4903 13.6449,-23.5846 16.51278,-27.627 30.14648,-42.50388 18.8115,-20.52674 20.18426,-23.19658 30.50196,-59.28906 3.9598,-13.85158 6.79744,-21.62426 8.21484,-22.50195 5.5027,-3.40704 43.63654,-24.46875 44.30274,-24.46875 z m 51.1309,17.46289 c 2.1904,0.63558 3.7128,25.59333 3.7128,27.92383 0,7.84176 8.3994,50.94572 13.9864,68.05662 4.1999,15.0778 4.4465,52.0098 45.5996,54.3828 l 6.125,0.3145 -3.0957,8.7519 c -2.6815,7.5797 -3.1003,10.9254 -3.1153,25.002 -0.017,15.6142 0.1654,16.7688 4.6582,29.4219 6.7893,19.121 6.5816,19.4697 -5.9023,9.9004 -12.742,-9.7672 -25.7329,-14.5122 -33.7051,-12.3106 -5.0235,1.3871 -8.8579,6.8269 -13.8672,19.666 -1.9687,5.0457 -5.6075,11.4608 -8.0859,14.2539 -4.0552,4.57 -5.1893,5.1258 -11.3223,5.5567 -11.5133,0.8091 -19.0759,-4.2951 -29.0586,-19.6094 -2.4651,-3.7815 -7.9184,-11.3745 -12.1191,-16.875 -10.2912,-13.4756 -18.8001,-30.9285 -19.6504,-40.3066 -0.5413,-5.97 0.04,-9.21 3.3906,-18.8887 4.8847,-14.11 4.673,-19.7021 -1.0664,-28.0449 -2.5353,-3.6853 -4.7911,-9.4686 -6.4218,-16.4629 -3.1607,-13.5569 -3.1417,-15.6265 0.2128,-22.7637 9.4799,-15.53824 21.6911,-22.97416 28.8516,-41.40039 1.0149,-9.73337 31.2844,-36.28614 40.6602,-46.55079 0.072,-0.0317 0.1422,-0.0381 0.2129,-0.0176 z m -102.09184,11.28906 c 0.8022,0 -0.30324,4.26438 -5.99414,23.12695 -8.8076,29.1931 -11.61345,34.39283 -28.34375,52.51953 -14.4829,15.69161 -16.64113,18.68731 -29.23633,40.61521 -12.7202,22.1459 -21.79784,32.316 -34.52344,38.6758 -5.6783,2.8377 -9.39119,3.8281 -14.33789,3.8281 -15.4935,-1.7065 -3.25399,-22.3249 13.19141,-55.6289 15.7757,-29.26043 36.0055,-54.43759 60.5625,-75.37497 14.3631,-12.24591 35.98144,-27.76172 38.68164,-27.76172 z m 316.28124,48.75586 c -4.7413,0 0.077,5.63741 15.4941,18.12695 9.3362,7.56325 23.7847,19.28398 32.1075,26.04688 33.2722,27.0362 58.2744,40.6682 80.1328,43.6914 9.7377,1.3468 32.2988,-0.281 34.5078,-2.4902 0.6589,-0.659 0.8591,-2.0818 0.4453,-3.1602 -0.6096,-1.5887 -3.9985,-2.1194 -17.8535,-2.7988 -20.8145,-1.0207 -28.7536,-2.8537 -43.3496,-10.0059 -14.4456,-7.0785 -29.9933,-17.5223 -56.6406,-38.0488 -24.0798,-18.54864 -42.4006,-31.36133 -44.8438,-31.36133 z m -57.0371,65.08203 c -9.7356,0.01 -10.9746,0.259 -10.6152,2.1543 0.5289,2.7896 6.6189,4.4498 25.6992,7.0098 16.2686,2.1828 39.1342,8.503 52.1953,14.4257 16.2669,7.3766 30.3485,19.8848 50.4121,44.7793 10.4872,13.0123 15.2112,16.1173 15.2012,10 -0.01,-5.9248 -11.7426,-22.775 -26.1407,-37.5332 l -9.4804,-9.7187 15.9492,6.8789 c 30.4609,13.1373 49.8628,16.7244 48.2363,8.918 -0.294,-1.4114 -4.5338,-3.4633 -13.0566,-6.3184 -6.9413,-2.3253 -22.6988,-8.4555 -35.0156,-13.623 -29.5,-12.3766 -41.0928,-16.1408 -63.6133,-20.6524 -23.9504,-4.798 -36.0277,-6.3313 -49.7715,-6.3203 z m -576.89063,184.9863 c 0.60619,-0.01 1.03711,0.4846 1.03711,1.5313 0,0.866 -1.125,2.2759 -2.5,3.1347 -2.8114,1.756 -3.09053,1.2287 -1.20703,-2.291 0.82001,-1.5324 1.89054,-2.3658 2.66992,-2.375 z m 26.44727,11.2071 c 4.5652,0 4.28496,3.0554 -0.46094,5.0214 -2.0905,0.866 -6.028,3.1882 -8.75,5.1602 -6.5217,4.7247 -6.29796,2.5215 0.46094,-4.5332 3.7718,-3.9368 6.4223,-5.6484 8.75,-5.6484 z m 1203.15816,3.8984 c 3.7187,0.038 8.3056,4.0414 10.8028,10.166 2.172,5.3274 1.9532,5.7224 -1.2246,2.211 -1.2324,-1.3623 -4.9754,-3.7118 -8.3184,-5.2227 -6.4941,-2.9353 -6.9133,-3.4673 -4.5781,-5.8027 0.9371,-0.9373 2.0788,-1.3641 3.3183,-1.3516 z m -1142.49215,13.6797 c 0.7244,0.01 1.40117,0.1283 2.02344,0.3672 1.0212,0.3918 1.57848,1.4376 1.23828,2.3242 -0.3402,0.8865 -4.96591,3.1132 -10.27929,4.9473 l -9.66016,3.3339 5.19922,-4.8496 c 4.31161,-4.0223 8.33946,-6.1502 11.47851,-6.123 z m 1139.99415,1.4726 c 0.6218,-0.078 1.8035,0.4767 3.8125,1.5157 4.2811,2.214 4.8807,3.7794 1.8887,4.9277 -3.7351,1.4334 -5.2316,0.7519 -5.8907,-2.6797 -0.483,-2.515 -0.6099,-3.663 0.1895,-3.7637 z m -250.7559,0.9512 c 2.289,0 2.4485,0.5474 1.7168,5.8867 -1.0762,7.8526 -2.7699,9.2925 -4.3222,3.67 -1.6143,-5.8471 -0.6037,-9.5567 2.6054,-9.5567 z m 222.4551,20.5352 c 2.7785,-0.2951 6.7853,4.5374 8.3867,10.3379 0.7009,2.5386 1.1493,4.7117 0.9961,4.83 -0.1533,0.1183 -2.3243,-1.2564 -4.8261,-3.0546 -2.5018,-1.799 -5.532,-3.8538 -6.7325,-4.5665 -2.6294,-1.5609 -1.6117,-6.1712 1.6367,-7.4179 0.1737,-0.067 0.3539,-0.1093 0.5391,-0.1289 z m -124.9414,4.9707 0,0 c 0.5739,0 1.1706,0.4631 2.1953,1.3907 1.2252,1.1088 2.5314,3.8084 2.9024,5.998 0.371,2.1896 0.2565,6.2302 -0.2539,8.9805 l -0.9278,5.0019 -2.6054,-5.7773 c -1.4333,-3.1772 -3.2327,-6.1637 -3.9981,-6.6367 -2.0321,-1.256 -1.6993,-5.2262 0.6328,-7.5586 0.9309,-0.9322 1.4808,-1.3991 2.0547,-1.4004 z m 82.6621,3.8691 c 3.4149,-0.025 6.7345,2.8857 8.2402,7.4492 0.8008,2.4253 1.2413,5.3986 0.9786,6.6075 -0.403,1.8551 -0.6239,1.7661 -1.4141,-0.5704 -0.5149,-1.5225 -3.4384,-4.9726 -6.498,-7.666 -5.2224,-4.5974 -5.393,-4.9413 -2.7715,-5.6269 0.4866,-0.1273 0.977,-0.1898 1.4648,-0.1934 z m -716.2773,23.2676 c 0.07,0.011 0.1298,0.04 0.1797,0.09 0.368,0.368 -0.4511,2.0137 -1.8204,3.6582 -1.3694,1.6447 -2.4921,2.4279 -2.4921,1.7403 0,-1.6798 3.0895,-5.6548 4.1328,-5.4883 z m 165.3437,20.2226 c 0.4044,0.068 -0.2109,0.8027 -1.9355,2.6387 -1.6917,1.8009 -3.6209,6.2196 -4.5313,10.3828 l -1.584,7.2481 -0.1015,-6.877 c -0.1064,-7.2937 1.975,-11.3425 6.6894,-13.0136 0.5512,-0.1954 0.9624,-0.3258 1.2266,-0.3692 0.099,-0.016 0.1786,-0.02 0.2363,-0.01 z m -124.2285,3.709 c 1.889,0.1426 1.8093,3.0419 -0.2812,8.5528 -1.4099,3.7169 -4.2887,9.57 -6.3965,13.0078 l -3.8321,6.25 0.7969,-7.9942 c 0.9665,-9.6798 3.8137,-17.2397 7.168,-19.0351 1.0656,-0.5704 1.9152,-0.8288 2.5449,-0.7813 z m 49.9805,15.0157 c 0.2678,-0.023 0.5089,0.028 0.7187,0.1582 2.1897,1.3534 1.7831,6.508 -0.9258,11.75 -1.3183,2.551 -4.9745,7.1455 -8.125,10.2109 l -5.7285,5.5742 0.014,-3.6992 c 0.023,-7.0635 10.03,-23.6572 14.0469,-23.9941 z"
       style="fill:#000000" />
    <path
       sodipodi:nodetypes="csccsccccsc"
       inkscape:connector-curvature="0"
       id="path4677"
       d="m 1387.9515,356.43179 c -0.3217,0.067 -0.7805,0.49274 -1.4317,1.14471 -2.9413,2.94479 -3.6185,9.95879 0.1638,20.98758 5.652,16.73286 26.951,18.44984 37.2628,12.70126 12.1379,-5.87648 18.8691,-23.74045 12.5285,-31.57153 -2.2164,-2.73747 -2.2266,-2.72147 -1.7343,2.44174 0.5339,5.59876 -2.1167,13.88728 -5.877,18.37873 -7.3592,8.79037 -20.9201,10.70826 -29.8691,4.22502 -4.5678,-4.14792 -5.1553,-3.39574 -8.4278,-10.53815 -1.0221,-2.44654 -1.4127,-7.74467 -1.4127,-11.69586 0,-4.70427 -0.4946,-6.22192 -1.2025,-6.0735 z"
       style="fill:#a3652a;fill-opacity:1" />
  </g>
  <g
     id="g4177">
    <path
       inkscape:connector-curvature="0"
       id="path4226"
       d="m 454.1636,808.02099 -68.0774,167.57425 557.7955,3.683 -75.7635,-176.78168 z"
       style="fill:#f7e9d1;fill-opacity:1;fill-rule:evenodd;stroke:#000000;stroke-width:12;stroke-linecap:round;stroke-linejoin:round;stroke-miterlimit:4;stroke-dasharray:none;stroke-opacity:1" />
    <path
       sodipodi:nodetypes="csc"
       inkscape:connector-curvature="0"
       id="path4228"
       d="m 435.4972,989.16044 c -37.2262,38.92916 -60.1687,73.31606 -71.4436,103.46386 -118.8521,317.7998 1058.8288,164.5492 468.9278,-104.56186"
       style="fill:#aaaaff;fill-opacity:1;fill-rule:evenodd;stroke:#000000;stroke-width:12;stroke-linecap:round;stroke-linejoin:round;stroke-miterlimit:4;stroke-dasharray:none;stroke-opacity:1" />
    <path
       sodipodi:nodetypes="csc"
       inkscape:connector-curvature="0"
       id="path4238"
       d="m 334.4792,1096.7666 c 166.1531,-112.16886 279.5379,97.3396 141.9446,170.241 -13.2219,7.0054 -48.3299,93.515 -66.2961,97.1463"
       style="fill:#f7e9d1;fill-opacity:1;fill-rule:evenodd;stroke:#000000;stroke-width:12;stroke-linecap:round;stroke-linejoin:round;stroke-miterlimit:4;stroke-dasharray:none;stroke-opacity:1" />
    <path
       sodipodi:nodetypes="cssc"
       inkscape:connector-curvature="0"
       id="path4220"
       d="m 430.0071,822.26104 c -298.6504,261.87096 166.8534,345.53826 0.555,132.9063 0,0 17.1753,11.8022 17.8829,2.6859 1.2575,-16.2003 7.8988,-55.8575 22.189,-71.907"
       style="fill:#f7e9d1;fill-opacity:1;fill-rule:evenodd;stroke:#000000;stroke-width:12;stroke-linecap:round;stroke-linejoin:round;stroke-miterlimit:4;stroke-dasharray:none;stroke-opacity:1" />
    <path
       sodipodi:nodetypes="cccc"
       inkscape:connector-curvature="0"
       id="path4222"
       d="m 882.3925,823.35894 c 275.4969,253.25216 -185.8055,321.42346 -12.0783,121.8806 l -26.7747,11.3918 c -0.4106,-22.471 -9.6637,-38.7537 -16.0482,-55.3127"
       style="fill:#f7e9d1;fill-opacity:1;fill-rule:evenodd;stroke:#000000;stroke-width:12;stroke-linecap:round;stroke-linejoin:round;stroke-miterlimit:4;stroke-dasharray:none;stroke-opacity:1" />
    <path
       sodipodi:nodetypes="csscc"
       inkscape:connector-curvature="0"
       id="path4205"
       d="M 666.082,903.51464 C 440.1038,908.90374 309.2246,756.7878 296.0484,578.49996 282.9079,400.69704 461.2665,253.5042 683.6504,262.26944 c 184.372,7.26701 283.3748,157.5821 274.7825,333.15418 133.9059,168.82442 -152.5068,305.083 -292.3509,308.09102 z"
       style="opacity:1;fill:#f7e9d1;fill-opacity:1;stroke:#000000;stroke-width:12;stroke-linecap:round;stroke-linejoin:round;stroke-miterlimit:4;stroke-dasharray:none;stroke-dashoffset:0;stroke-opacity:1" />
    <path
       sodipodi:nodetypes="cc"
       inkscape:connector-curvature="0"
       id="path4208"
       d="m 894.4707,698.18441 c 27.6834,2.99452 31.4223,-8.37761 46.117,-13.17627"
       style="fill:none;fill-rule:evenodd;stroke:#000000;stroke-width:12;stroke-linecap:round;stroke-linejoin:round;stroke-miterlimit:4;stroke-dasharray:none;stroke-opacity:1" />
    <path
       sodipodi:nodetypes="ccc"
       inkscape:connector-curvature="0"
       id="path4210"
       d="m 646.3176,626.81294 c -90.3941,-14.86449 -81.7747,121.32256 -13.1763,94.42995 -44.0395,-21.3507 -25.111,-79.04811 2.1961,-76.86159"
       style="fill:none;fill-rule:evenodd;stroke:#000000;stroke-width:12;stroke-linecap:round;stroke-linejoin:round;stroke-miterlimit:4;stroke-dasharray:none;stroke-opacity:1" />
    <path
       sodipodi:nodetypes="cccccc"
       inkscape:connector-curvature="0"
       id="path4216"
       d="m 802.2368,149.17308 c -63.9969,57.97119 -52.8872,133.61451 -72.4695,202.03617 27.8166,-82.74037 53.4371,-136.97534 81.2537,-161.40933 -18.5744,60.6192 -21.8018,98.21793 -23.0585,132.86074 27.1045,-87.05782 56.7519,-120.71395 86.7438,-147.13503 L 717.6891,287.52394"
       style="fill:none;fill-rule:evenodd;stroke:#000000;stroke-width:12;stroke-linecap:round;stroke-linejoin:round;stroke-miterlimit:4;stroke-dasharray:none;stroke-opacity:1" />
    <path
       sodipodi:nodetypes="csscccc"
       inkscape:connector-curvature="0"
       id="path4224"
       d="m 543.1035,991.35644 c -34.2958,-1.6703 -63.7899,8.44742 -81.101,13.69286 -31.2441,9.4674 -45.5918,-19.24391 -11.8712,-30.46786 42.3971,-14.11195 122.1525,-26.3258 199.5671,-21.248 80.4369,4.2143 144.1906,6.03896 179.7061,15.0434 60.5654,20.89239 26.5898,53.67226 -8.3578,35.02336 -25.3088,-7.71068 -65.1647,-14.22946 -105.5537,-14.23976"
       style="fill:#aaaaff;fill-opacity:1;fill-rule:evenodd;stroke:#000000;stroke-width:12;stroke-linecap:round;stroke-linejoin:round;stroke-miterlimit:4;stroke-dasharray:none;stroke-opacity:1" />
    <path
       sodipodi:nodetypes="sssscccss"
       inkscape:connector-curvature="0"
       id="path4244"
       d="m 388.2823,1170.3341 c 16.4018,94.0089 119.6901,131.3499 18.1175,206.4282 -60.9035,45.0173 -171.0405,-67.9456 -215.7616,-140.5469 -7.4158,-12.0389 -28.54694,-31.557 -34.9587,-41.9348 -10.68042,-17.2869 13.55371,-53.4537 13.55371,-53.4537 -0.66489,-40.9423 18.88264,-41.4599 35.09621,-48.6453 2.9927,-22.0169 30.466,-29.0288 50.92893,-33.5754 -2.92046,-1.4602 20.51808,-34.8598 32.44929,-38.8518 66.86123,-22.37092 81.72726,42.553 100.57466,150.5797 z"
       style="opacity:1;fill:#f7e9d1;fill-opacity:1;stroke:#000000;stroke-width:12;stroke-linecap:round;stroke-linejoin:round;stroke-miterlimit:4;stroke-dasharray:none;stroke-dashoffset:0;stroke-opacity:1" />
    <path
       sodipodi:nodetypes="cc"
       inkscape:connector-curvature="0"
       id="path4253"
       d="m 254.7624,1058.3451 c 0,0 -8.2351,20.8967 29.79352,64.774"
       style="fill:none;fill-rule:evenodd;stroke:#000000;stroke-width:12;stroke-linecap:round;stroke-linejoin:round;stroke-miterlimit:4;stroke-dasharray:none;stroke-opacity:1" />
    <path
       sodipodi:nodetypes="csc"
       inkscape:connector-curvature="0"
       id="path4277"
       d="M 852.7458,1360.2919 C 837.7934,1348.992 821.2964,1279.9334 807.5114,1271.5107 624.3796,1159.6145 829.193,998.38074 940.5877,1083.5903"
       style="fill:#f7e9d1;fill-opacity:1;fill-rule:evenodd;stroke:#000000;stroke-width:12;stroke-linecap:round;stroke-linejoin:round;stroke-miterlimit:4;stroke-dasharray:none;stroke-opacity:1" />
    <path
       sodipodi:nodetypes="cssssccc"
       inkscape:connector-curvature="0"
       id="path4270"
       d="m 1117.3693,1218.6471 c -54.1262,99.8158 -167.6591,188.5453 -234.9768,159.2132 -72,-31.3724 -66.2567,-68.9052 15.3724,-194.3499 31.9388,-49.0825 -7.6147,-120.3195 26.3297,-141.0901 43.6176,-26.6897 71.56363,6.4568 82.6519,3.5775 29.9718,-7.7828 52.9975,24.2195 52.9975,24.2195 18.2764,-5.2549 38.9915,13.148 47.1135,25.9772 65.8588,-5.6609 32.7001,78.6843 10.5118,122.4526 z"
       style="opacity:1;fill:#f7e9d1;fill-opacity:1;stroke:#000000;stroke-width:12;stroke-linecap:round;stroke-linejoin:round;stroke-miterlimit:4;stroke-dasharray:none;stroke-dashoffset:0;stroke-opacity:1" />
    <path
       sodipodi:nodetypes="sssss"
       inkscape:connector-curvature="0"
       id="path4780"
       d="m 857.72108,600.71256 c 0,31.097 -8.4668,57.7499 -29.5968,57.7499 -21.1301,0 -46.9218,-26.6529 -46.9218,-57.7499 0,-31.097 7.023,-56.3062 28.1531,-56.3062 21.13,0 48.3655,25.2092 48.3655,56.3062 z"
       style="opacity:1;fill:#ffffff;fill-opacity:1;stroke:#000000;stroke-width:12;stroke-linecap:round;stroke-linejoin:round;stroke-miterlimit:4;stroke-dasharray:none;stroke-dashoffset:0;stroke-opacity:1" />
    <path
       sodipodi:nodetypes="sssss"
       inkscape:connector-curvature="0"
       id="path4803"
       d="m 955.89568,565.34086 c 0,29.9009 -6.6786,52.6967 -23.8218,52.6968 -17.1432,0 -38.2593,-22.7958 -38.2593,-52.6968 0,-29.901 6.6786,-55.5843 23.8219,-55.5842 17.1432,0 38.2592,25.6833 38.2592,55.5842 z"
       style="opacity:1;fill:#ffffff;fill-opacity:1;stroke:#000000;stroke-width:12;stroke-linecap:round;stroke-linejoin:round;stroke-miterlimit:4;stroke-dasharray:none;stroke-dashoffset:0;stroke-opacity:1" />
    <path
       id="path4806"
       d="m 846.17103,612.2627 a 12.271856,23.099964 0 0 1 -12.27186,23.09996 12.271856,23.099964 0 0 1 -12.27186,-23.09996 12.271856,23.099964 0 0 1 12.27186,-23.09997 12.271856,23.099964 0 0 1 12.27186,23.09997 z"
       style="opacity:1;fill:#000000;fill-opacity:1;stroke:#000000;stroke-width:12;stroke-linecap:round;stroke-linejoin:round;stroke-miterlimit:4;stroke-dasharray:none;stroke-dashoffset:0;stroke-opacity:1"
       inkscape:connector-curvature="0" />
    <path
       id="path4808"
       d="m 947.23324,575.44714 a 9.3843603,18.046848 0 0 1 -9.38436,18.04685 9.3843603,18.046848 0 0 1 -9.38436,-18.04685 9.3843603,18.046848 0 0 1 9.38436,-18.04684 9.3843603,18.046848 0 0 1 9.38436,18.04684 z"
       style="opacity:1;fill:#000000;fill-opacity:1;stroke:#000000;stroke-width:12;stroke-linecap:round;stroke-linejoin:round;stroke-miterlimit:4;stroke-dasharray:none;stroke-dashoffset:0;stroke-opacity:1"
       inkscape:connector-curvature="0" />
    <path
       sodipodi:nodetypes="cc"
       inkscape:connector-curvature="0"
       id="path4253-1"
       d="m 205.28674,1089.5331 c 0,0 -8.2351,20.8967 29.79352,64.774"
       style="fill:none;fill-rule:evenodd;stroke:#000000;stroke-width:12;stroke-linecap:round;stroke-linejoin:round;stroke-miterlimit:4;stroke-dasharray:none;stroke-opacity:1" />
    <path
       sodipodi:nodetypes="cc"
       inkscape:connector-curvature="0"
       id="path4253-1-1"
       d="m 170.22673,1139.7543 c 0,0 -1.60212,12.3686 36.4265,50.5605"
       style="fill:none;fill-rule:evenodd;stroke:#000000;stroke-width:12;stroke-linecap:round;stroke-linejoin:round;stroke-miterlimit:4;stroke-dasharray:none;stroke-opacity:1" />
    <path
       sodipodi:nodetypes="cc"
       inkscape:connector-curvature="0"
       id="path4230"
       d="m 996.33731,1044.8666 c 15.23009,13.0303 13.52739,47.7224 0.67007,70.3534"
       style="fill:none;fill-rule:evenodd;stroke:#000000;stroke-width:12;stroke-linecap:round;stroke-linejoin:round;stroke-miterlimit:4;stroke-dasharray:none;stroke-opacity:1" />
    <path
       sodipodi:nodetypes="cc"
       inkscape:connector-curvature="0"
       id="path4232"
       d="m 1057.3102,1066.9777 c 4.9393,16.6424 4.949,41.3789 -7.3703,58.2928"
       style="fill:none;fill-opacity:1;fill-rule:evenodd;stroke:#000000;stroke-width:12;stroke-linecap:round;stroke-linejoin:round;stroke-miterlimit:4;stroke-dasharray:none;stroke-opacity:1" />
    <path
       sodipodi:nodetypes="cc"
       inkscape:connector-curvature="0"
       id="path4234"
       d="m 1105.5526,1095.7891 c 5.692,16.4293 -3.7343,24.0173 -6.7004,36.8518"
       style="fill:none;fill-rule:evenodd;stroke:#000000;stroke-width:12;stroke-linecap:round;stroke-linejoin:round;stroke-miterlimit:4;stroke-dasharray:none;stroke-opacity:1" />
  </g>
</svg>
